# xmcd
#
# Track frame offsets:
#  150
#  5600
#  8589
#  11763
#  14763
#  17882
#  24521
#  30404
#  36565
#  41228
#  46919
#  51465
#  56854
#  61599
#  68497
#  75164
#  82581
#  90272
#  95322
#  101660
#  105722
#  113757
#  121702
#  128084
#  137516
#  144298
#  149656
#  156422
#  163835
#  172014
#  175722
#  183314
#  189332
#
# Disc length: 2629 seconds
#
# Revision: 0
# Processed by: cddbd v1.4PL0 Copyright (c) Steve Scherf et al.
# Submitted via: AltoMP3_Maker 3.0
#
DISCID=a60a4321
DTITLE=Various Artist - The Best Of Country Music [CD2)
DYEAR=1900
DGENRE=
TTITLE0=Hello I love you
TTITLE1=Sundown
TTITLE2=Woman beautiful woman
TTITLE3=Ruby, don't take your love to town
TTITLE4=Gentle on my mind
TTITLE5=Jolene
TTITLE6=Let your love flow
TTITLE7=Rhinestone cowboy
TTITLE8=Oh Lonesome me
TTITLE9=Half the way
TTITLE10=If I said you had a beautiful body
TTITLE11=Detroit city
TTITLE12=Down the Mississippi
TTITLE13=Mississippi
TTITLE14=Some days are diamons
TTITLE15=Slow hand
TTITLE16=I don't wanna play house
TTITLE17=Your cheating heart
TTITLE18=Listen to the radio
TTITLE19=You never gave up on me
TTITLE20=Always on my mind
TTITLE21=Love me tender
TTITLE22=Honey
TTITLE23=The sweetest thing
TTITLE24=Only love
TTITLE25=Annie's song
TTITLE26=Me and Bobby McGee
TTITLE27=Help me make it through the night
TTITLE28=When you were sweet sixteen
TTITLE29=Love hurts
TTITLE30=You needed me
TTITLE31=Blue eyes crying in the rain
TTITLE32=I will always love you
EXTD=
EXTT0=
EXTT1=
EXTT2=
EXTT3=
EXTT4=
EXTT5=
EXTT6=
EXTT7=
EXTT8=
EXTT9=
EXTT10=
EXTT11=
EXTT12=
EXTT13=
EXTT14=
EXTT15=
EXTT16=
EXTT17=
EXTT18=
EXTT19=
EXTT20=
EXTT21=
EXTT22=
EXTT23=
EXTT24=
EXTT25=
EXTT26=
EXTT27=
EXTT28=
EXTT29=
EXTT30=
EXTT31=
EXTT32=
PLAYORDER=
